<?xml version="1.0" encoding="UTF-8"?>
<svg id="Iconen" xmlns="http://www.w3.org/2000/svg" viewBox="0 0 720 720">
  <defs>
    <style>
      .cls-1 {
        fill: #e30613;
      }

      .cls-1, .cls-2, .cls-3, .cls-4 {
        stroke: #1d1d1b;
        stroke-miterlimit: 10;
        stroke-width: 11px;
      }

      .cls-2 {
        fill: #fff;
      }

      .cls-3 {
        fill: #1d71b8;
      }

      .cls-4 {
        fill: #c6c6c6;
      }
    </style>
  </defs>
  <path class="cls-2" d="M186.6,251.63c29.04.24,57.87,12.74,70.35,37.86,3.72,7.49,5.34,15.53,6,23.69.43,5.38.45,10.82.37,16.18-.21,13.95-.28,27.9-.28,41.85,0,30.25.07,60.49.07,90.74,0,0-38.19,0-76.5,0h0c-38.31,0-76.5,0-76.5,0,0-30.25.07-60.49.07-90.74,0-13.95-.07-27.9-.28-41.85-.08-5.36-.07-10.8.37-16.18.66-8.16,2.28-16.21,6-23.69,12.48-25.12,41.31-37.62,70.35-37.86h0Z"/>
  <path class="cls-2" d="M365.64,251.63c29.04.24,57.87,12.74,70.35,37.86,3.72,7.49,5.34,15.53,6,23.69.43,5.38.45,10.82.37,16.18-.21,13.95-.28,27.9-.28,41.85,0,30.25.07,60.49.07,90.74,0,0-38.19,0-76.5,0h0c-38.31,0-76.5,0-76.5,0,0-30.25.07-60.49.07-90.74,0-13.95-.07-27.9-.28-41.85-.08-5.36-.07-10.8.37-16.18.66-8.16,2.28-16.21,6-23.69,12.48-25.12,41.31-37.62,70.35-37.86h0Z"/>
  <path class="cls-2" d="M544.38,251.63c29.04.24,57.87,12.74,70.35,37.86,3.72,7.49,5.34,15.53,6,23.69.43,5.38.45,10.82.37,16.18-.21,13.95-.28,27.9-.28,41.85,0,30.25.07,60.49.07,90.74,0,0-38.19,0-76.5,0h0c-38.31,0-76.5,0-76.5,0,0-30.25.07-60.49.07-90.74,0-13.95-.07-27.9-.28-41.85-.08-5.36-.07-10.8.37-16.18.66-8.16,2.28-16.21,6-23.69,12.48-25.12,41.31-37.62,70.35-37.86h0Z"/>
  <rect class="cls-4" x="83.85" y="356.8" width="563.59" height="225.38" rx="1" ry="1"/>
  <rect class="cls-3" x="141.46" y="409.86" width="90.88" height="119.27"/>
  <rect class="cls-1" x="320.2" y="409.86" width="90.88" height="119.27"/>
  <rect class="cls-1" x="498.94" y="409.86" width="90.88" height="119.27"/>
  <circle class="cls-2" cx="186.6" cy="204.95" r="46.2"/>
  <circle class="cls-2" cx="365.64" cy="204.95" r="46.2"/>
  <circle class="cls-2" cx="544.39" cy="204.95" r="46.2"/>
</svg>