<?xml version="1.0" encoding="UTF-8"?>
<svg id="Iconen" xmlns="http://www.w3.org/2000/svg" viewBox="0 0 720 720">
  <defs>
    <style>
      .cls-1 {
        stroke-linecap: square;
      }

      .cls-1, .cls-2 {
        fill: #fff;
      }

      .cls-1, .cls-3 {
        stroke-width: 11px;
      }

      .cls-1, .cls-3, .cls-4 {
        stroke: #1d1d1b;
        stroke-miterlimit: 10;
      }

      .cls-5 {
        fill: #1d1d1b;
      }

      .cls-6, .cls-3 {
        fill: #dadada;
      }

      .cls-7 {
        fill: #1d71b8;
      }

      .cls-4 {
        fill: none;
        stroke-linecap: round;
        stroke-width: 17px;
      }
    </style>
  </defs>
  <path class="cls-1" d="M281.67,267.18c1.31-30.39,11.43-39.2,9.75-42.81,6.2,3.12,42.47,21.33,42.47,21.33-.56,44.13,24.44,121.41,42.64,172.16h0s.01.04.02.05c.39,1.09.78,2.17,1.17,3.24,0,0,0,0,0,0,1.57,4.34,3.07,8.46,4.5,12.33,0,0,0,.02.01.03,7.23,19.59,12.44,32.69,12.8,34.1,15.46-5.84,30.18-12.25,47.04-11.53,3.53.15,7.81,1.02,12.21,2.23,19.52,5.35,30.59,19.65,43.58,33.87,19.08-23.05,28.41-47.23,102.02-46.92v196.38c-23.43,5.45-47.16,9.69-71.18,11.14-33.53,2.03-65.82-4.18-98.49-11.07-19.1-4.03-37.69-10.42-55.2-19.04-11.86-5.84-22.23-12.89-31.31-20.96-19.1-16.98-32.47-38.45-41.93-62.56-10.03-25.53-15.67-54.01-19.11-83.21-3.49-29.66-2.37-156.7-.99-188.76Z"/>
  <g>
    <g>
      <g>
        <path class="cls-7" d="M318.99,398.46c-14.91,0-29.9-.86-45.82-2.62l-.16-.02c-4.19-.59-7.32-4.14-7.28-8.27v-.22s4.1-44.4,4.1-44.4c0-2.96-.85-5.82-2.51-8.51l-6.81-11.05c-1.61-2.61-3.29-5.18-4.92-7.66-7.42-11.33-14.43-22.03-15.63-37.29-.67-8.53-1.43-17.1-2.33-26.19l-.07-.68.1-.67c.57-3.82,3.97-6.69,7.92-6.69.65,0,1.3.08,1.94.23,4.46,1.08,10.45,3.9,16.8,6.89,7.88,3.71,17.69,8.32,22.5,8.32h.23c10.34-.44,21.01-2.24,33.57-5.68.66-.18,1.34-.27,2.03-.27,3.12,0,5.86,1.84,6.99,4.7,1.45,3.67,3.09,7.52,4.89,11.43,8.6,18.7,21.29,35.51,37.7,49.96,2.43,2.14,5.09,3.71,7.9,4.66,3.55,1.2,5.95,4.43,6.04,8.07l2.88,52.15v.14c.01,4.02-2.92,7.46-6.99,8.18-20.91,3.7-41.55,5.5-63.08,5.5Z"/>
        <path class="cls-5" d="M245.6,249.67c.21,0,.42.02.64.08,9.69,2.36,30.46,15.37,40.61,15.37.16,0,.31,0,.46,0,12.03-.5,23.63-2.81,34.79-5.87.19-.05.38-.08.57-.08.82,0,1.58.47,1.87,1.21,1.57,3.97,3.26,7.9,5.01,11.71,8.93,19.4,22.07,36.83,39.06,51.79,3.31,2.91,6.65,4.69,9.78,5.74,1.39.47,2.3,1.69,2.31,3.05l2.87,52.12c0,1.34-1.02,2.49-2.45,2.74-20.92,3.7-41.47,5.42-62.13,5.42-14.95,0-29.96-.9-45.21-2.59-1.48-.21-2.56-1.38-2.54-2.76l4.09-44.42c.04-4.05-1.09-8.05-3.32-11.66,0,0-6.81-11.05-6.81-11.05-8.67-14.07-18.4-25.38-19.75-42.5-.7-8.8-1.48-17.54-2.33-26.3.18-1.17,1.26-2,2.48-2M245.6,238.67c-6.65,0-12.39,4.89-13.36,11.38l-.2,1.34.13,1.35c.89,9.05,1.64,17.58,2.32,26.09,1.32,16.67,9.04,28.47,16.52,39.88,1.61,2.45,3.26,4.98,4.83,7.53h.02c.31.53.66,1.1,1.05,1.73l2.34,3.8,3.4,5.52c1.07,1.74,1.64,3.56,1.68,5.41l-4.05,43.89-.04.44v.45c-.08,6.88,5.08,12.81,12.01,13.78l.16.02.16.02c16.12,1.79,31.3,2.66,46.42,2.66,21.86,0,42.81-1.83,64.04-5.59,6.7-1.19,11.55-6.91,11.53-13.61v-.29s-.02-.29-.02-.29l-2.86-51.93c-.18-5.91-4.07-11.12-9.78-13.05-2.15-.73-4.12-1.9-6.03-3.58-15.83-13.94-28.06-30.13-36.34-48.13-1.76-3.83-3.37-7.58-4.77-11.15-1.96-4.97-6.71-8.18-12.1-8.18-1.17,0-2.35.16-3.48.47-12.15,3.33-22.43,5.07-32.35,5.49-3.59,0-13.96-4.88-20.16-7.8-6.89-3.24-12.84-6.04-17.84-7.26-1.06-.26-2.15-.39-3.24-.39h0Z"/>
      </g>
      <g>
        <path class="cls-7" d="M387.03,327.71c-3.05,0-6.06-.77-8.94-2.29-1.69-.89-3.34-2.04-4.89-3.41-16.63-14.64-29.5-31.72-38.27-50.78-.69-1.5-1.4-3.07-2.1-4.67l-.31-.71c-1.12-2.57-2.26-5.36-3.38-8.3-1.31-3.43-2.29-6.26-3.09-8.9l-.04-.13c-.39-1.31-.79-2.72-1.15-4.15-.1-.41-.2-.81-.3-1.21-.21-.89-.41-1.78-.6-2.67-.14-.67-.27-1.33-.39-2-.1-.54-.19-1.1-.28-1.65-.11-.68-.19-1.35-.28-2.03,0,0-.08-.55-.1-.73-.05-.39-.08-.79-.12-1.18l-.02-.23c-.08-.85-.14-1.68-.18-2.52l-.02-.3c-.02-.28-.03-.56-.04-.84-.03-1.08-.03-2.2.01-3.32.01-.32.03-.64.04-.96.08-1.42.18-2.53.32-3.57.02-.14.04-.28.07-.42.16-1.09.37-2.2.62-3.32,0,0,.12-.55.17-.74.29-1.18.65-2.34,1.05-3.48.06-.18.14-.37.21-.56l.06-.15c.51-1.35,1-2.47,1.54-3.52,5.36-10.48,17.89-17.63,31.94-18.22.48-.02.95-.03,1.43-.04h.33c.85,0,1.75.03,2.75.09.23.01.47.04.7.06l.24.02c.72.06,1.43.14,2.15.23.36.05.7.1,1.05.15.71.11,1.42.24,2.13.39l.21.04c.23.04.46.09.69.14,1.04.24,1.99.48,2.9.74l.23.07c.9.27,1.77.55,2.73.89.22.08.45.16.67.25l.22.08c.68.25,1.35.51,2.02.79.32.13.65.27.97.41.67.29,1.34.6,2.02.92,0,0,.59.28.78.37,1.02.5,1.92.97,2.76,1.43l.18.1c.8.44,1.65.94,2.5,1.45l.77.48c.63.39,1.26.8,1.89,1.21.28.19.55.37.82.55.65.44,1.29.89,1.93,1.35l.61.44c.85.63,1.69,1.26,2.57,1.96.8.63,1.58,1.28,2.36,1.93l.62.54c.59.5,1.17,1.02,1.75,1.54l.66.6c.6.55,1.2,1.11,1.79,1.68l.45.43c.76.74,1.5,1.48,2.23,2.23.82.85,1.61,1.71,2.4,2.57l.46.5c1.53,1.71,3.01,3.49,4.41,5.27l.42.54c1.35,1.75,2.62,3.51,3.79,5.26l.4.61c.57.86,1.12,1.72,1.65,2.58.51.84,1,1.67,1.46,2.5l.35.63c.45.83.89,1.65,1.29,2.46,7.51,15.17,7.57,33.57.16,51.82-4.2,10.33-15.34,37.79-35.66,38.64-.25.01-.5.02-.76.02Z"/>
        <path class="cls-5" d="M360.32,196.24c.8,0,1.6.03,2.41.08.28.02.56.05.83.07.63.05,1.25.12,1.87.2.31.04.61.09.92.13.63.1,1.26.22,1.88.35.27.06.54.1.8.16.88.2,1.76.42,2.64.67.03,0,.06.02.09.03.85.25,1.69.53,2.53.82.27.09.54.2.8.3.61.23,1.22.46,1.83.72.29.12.58.24.87.37.62.27,1.24.55,1.85.84.24.11.48.22.72.34.85.42,1.69.85,2.53,1.31.04.02.07.04.11.06.8.44,1.59.9,2.37,1.38.24.15.48.3.72.44.59.37,1.18.74,1.76,1.13.25.17.51.34.76.51.61.41,1.21.84,1.81,1.27.19.14.39.27.58.42.8.59,1.58,1.18,2.4,1.83.75.59,1.49,1.2,2.22,1.82.2.17.39.34.59.51.56.48,1.11.96,1.65,1.45.21.19.42.38.62.57.57.52,1.13,1.05,1.69,1.59.14.14.29.27.43.41.71.69,1.41,1.4,2.1,2.11.78.81,1.53,1.62,2.27,2.44.15.16.29.32.43.48,1.47,1.65,2.87,3.32,4.18,4.99.14.17.27.35.41.52,1.28,1.66,2.47,3.31,3.57,4.95.13.19.25.38.38.56.54.81,1.06,1.62,1.55,2.42.48.79.93,1.56,1.36,2.33.11.19.21.38.32.57.42.77.82,1.52,1.19,2.26,7.37,14.9,6.15,32.14-.01,47.31-4.16,10.25-14.22,34.52-30.79,35.21-.18,0-.35.01-.53.01-2.09,0-4.22-.52-6.37-1.66-1.27-.67-2.55-1.55-3.83-2.67-15.98-14.07-28.53-30.73-36.91-48.95-.68-1.47-1.37-3.01-2.06-4.59-.1-.23-.21-.46-.31-.7-1.12-2.57-2.22-5.28-3.28-8.05-1.06-2.78-2.08-5.62-2.96-8.53,0-.03-.02-.06-.02-.08-.4-1.32-.76-2.64-1.1-3.97-.1-.38-.19-.76-.28-1.14-.2-.83-.39-1.66-.56-2.5-.13-.62-.25-1.24-.36-1.86-.09-.51-.18-1.02-.26-1.53-.1-.62-.18-1.25-.26-1.87-.03-.22-.07-.45-.09-.67-.05-.43-.09-.86-.13-1.29-.07-.76-.13-1.52-.16-2.28-.02-.34-.04-.69-.05-1.03-.03-.99-.02-1.98,0-2.96.01-.3.03-.61.04-.91.06-1.03.14-2.06.27-3.07.02-.13.04-.25.06-.38.14-.96.32-1.91.54-2.86.05-.21.09-.43.14-.64.25-1,.55-1.99.9-2.96.07-.2.15-.4.23-.6.38-1.01.8-2.01,1.3-2.98,4.63-9.06,15.69-14.74,27.27-15.22.42-.02.83-.03,1.25-.03.09,0,.18,0,.28,0M360.32,185.24h-.38c-.54,0-1.07.02-1.6.04-16,.67-30.37,9-36.61,21.21-.62,1.22-1.21,2.55-1.79,4.08l-.05.13c-.09.23-.18.47-.26.7-.46,1.28-.86,2.62-1.2,3.96-.06.24-.11.48-.17.71l-.03.14c-.28,1.23-.51,2.45-.69,3.64-.04.21-.07.41-.09.6-.16,1.18-.27,2.42-.35,3.91-.02.38-.04.76-.05,1.14-.04,1.23-.05,2.47-.01,3.66.01.34.03.66.04.99v.27c.06.89.13,1.82.21,2.75l.03.27c.04.42.08.84.13,1.26.03.24.06.47.09.7l.02.11c.09.72.19,1.45.3,2.18.09.6.19,1.19.3,1.78.13.71.27,1.42.42,2.13.2.97.41,1.92.63,2.84.1.42.21.85.32,1.28.38,1.49.79,2.96,1.21,4.38v.02s.02.06.02.06l.02.05c.84,2.77,1.86,5.72,3.22,9.27,1.15,3.02,2.32,5.89,3.48,8.53l.33.75c.71,1.6,1.43,3.2,2.13,4.74,9.09,19.75,22.42,37.45,39.63,52.61,1.88,1.65,3.88,3.05,5.96,4.15,3.68,1.95,7.56,2.93,11.51,2.93.33,0,.66,0,.99-.02,23.86-1,35.97-30.83,40.52-42.06,8.01-19.73,7.89-39.73-.32-56.33-.4-.8-.84-1.65-1.4-2.67-.12-.22-.24-.44-.37-.66-.57-1.01-1.06-1.86-1.57-2.69-.51-.84-1.07-1.72-1.76-2.75-.14-.21-.28-.42-.42-.63-1.25-1.86-2.59-3.72-4-5.54-.15-.19-.3-.39-.45-.58-1.47-1.88-3.03-3.74-4.63-5.54l-.48-.53c-.91-1.01-1.74-1.89-2.52-2.71-.74-.77-1.5-1.53-2.33-2.34-.11-.11-.23-.22-.35-.34l-.12-.12c-.62-.6-1.25-1.19-1.88-1.77-.23-.21-.46-.42-.7-.64-.6-.54-1.22-1.08-1.84-1.62l-.18-.15c-.16-.14-.32-.28-.49-.42-.88-.75-1.7-1.42-2.49-2.04-.87-.69-1.76-1.37-2.72-2.07-.16-.12-.33-.24-.49-.35l-.17-.12c-.7-.5-1.39-.99-2.05-1.44-.29-.2-.58-.39-.87-.58-.65-.43-1.32-.86-2.03-1.3l-.19-.12c-.21-.13-.42-.26-.63-.39-.94-.57-1.81-1.08-2.66-1.55-.07-.04-.14-.08-.21-.12-.94-.52-1.91-1.02-2.98-1.55-.22-.11-.43-.21-.65-.31l-.2-.09c-.77-.37-1.49-.7-2.21-1.01-.34-.15-.69-.29-1.03-.44-.71-.29-1.43-.58-2.21-.87l-.21-.08c-.26-.1-.52-.19-.77-.28-1.06-.37-2.03-.69-2.97-.97-.08-.02-.16-.05-.24-.07-1.02-.3-2.1-.57-3.27-.84-.27-.06-.54-.12-.81-.17l-.2-.04c-.83-.17-1.61-.31-2.38-.44-.39-.06-.78-.12-1.17-.17-.77-.1-1.56-.19-2.41-.26l-.19-.02c-.29-.03-.59-.05-.88-.07-1.13-.07-2.14-.11-3.11-.11h0Z"/>
      </g>
      <g>
        <path class="cls-7" d="M282.47,261.85c-1.15,0-2.29-.02-3.43-.07l-.39-.02c-1.45-.07-2.57-.14-3.63-.23l-.17-.02c-6.8-.59-13.28-1.89-19.25-3.88-3.7-1.23-7.21-2.73-10.42-4.46l-.22-.12c-1.08-.59-2.08-1.17-3.01-1.75-.15-.1-.29-.19-.42-.28-1.05-.67-1.9-1.24-2.67-1.8-.21-.15-.41-.31-.62-.48l-.18-.14c-.72-.54-1.41-1.07-2.12-1.66-.34-.29-.67-.59-.99-.89-.15-.14-.29-.27-.44-.41l-.19-.17c-.3-.26-.6-.53-.88-.8-.99-.96-1.93-1.97-2.8-2.98-12.6-14.74-11.26-39.05-9.34-52.23,1.18-8.11,3.95-15.7,8.22-22.58,11.36-18.27,33.84-31.64,61.69-36.68,9.58-1.74,19.61-2.62,29.8-2.62s19.87.81,29.94,2.41c17.03,2.71,38.57,7.18,54.14,17.83,11.35,7.77,19.6,21.99,21.03,36.23,1.19,11.84-2.34,22.67-9.93,30.49-1.37,1.41-3.3,2.21-5.28,2.21s-3.88-.78-5.27-2.15c-1.93-1.91-3.92-3.71-5.9-5.37-12.79-10.7-26.35-16.35-39.21-16.35h-.42c-.51,0-1.01.02-1.52.04-14.46.61-27.17,7.6-32.39,17.81-3.47,6.79-4.51,14.73-3.19,24.28.52,3.72,1.41,7.76,2.65,12.02.54,1.86.32,3.82-.63,5.52-.97,1.73-2.56,2.97-4.5,3.5-1.31.36-2.63.71-3.95,1.04-.52.13-1.05.27-1.57.4-2.14.53-4.09.98-5.96,1.38-.23.05-1.08.22-1.08.22-2.02.41-3.81.75-5.46,1.01,0,0-.99.17-1.25.21-2.01.32-4.1.59-6.23.83-.36.04-1.38.14-1.38.14-2.51.25-4.62.4-6.64.49-1.31.05-2.65.08-3.99.08-.15,0-.57-.01-.57-.01Z"/>
        <path class="cls-5" d="M321.02,133.08c9.74,0,19.48.82,29.08,2.35,17.14,2.72,37.36,6.99,51.89,16.94,17.64,12.07,26.63,41.48,10.26,58.35-.36.37-.84.54-1.34.54s-1.03-.19-1.41-.56c-2.02-1.99-4.1-3.89-6.23-5.67-13.8-11.54-28.57-17.63-42.74-17.63-.16,0-.31,0-.47,0-.57,0-1.13.02-1.69.04-16.41.69-30.95,8.85-37.06,20.8-4.34,8.48-5.08,17.89-3.74,27.54.59,4.24,1.57,8.52,2.82,12.81.27.93-.3,1.9-1.3,2.17-1.28.35-2.57.69-3.86,1.02-.51.13-1.01.26-1.52.39-1.92.47-3.84.92-5.77,1.33-.35.07-.69.14-1.04.21-1.74.36-3.49.69-5.25.98-.41.07-.81.14-1.22.21-1.98.31-3.97.57-5.97.79-.44.05-.88.09-1.31.13-2.08.2-4.16.37-6.33.46-1.25.05-2.5.08-3.76.08h0c-.18,0-.36,0-.54-.01-1.08,0-2.15-.02-3.23-.07-.15,0-.3-.02-.45-.03-1.11-.05-2.22-.12-3.32-.21-.04,0-.08,0-.11-.01-6.22-.53-12.34-1.73-18.04-3.62-3.35-1.11-6.56-2.47-9.55-4.08-.04-.02-.09-.05-.13-.07-.95-.51-1.88-1.05-2.79-1.62-.13-.08-.25-.17-.38-.25-.81-.52-1.62-1.05-2.39-1.61-.25-.18-.47-.37-.71-.56-.64-.48-1.28-.97-1.89-1.48-.46-.39-.88-.81-1.32-1.2-.3-.26-.6-.52-.89-.8-.86-.84-1.68-1.71-2.46-2.62-10.37-12.14-10.24-33.02-8.08-47.86,1.12-7.67,3.73-14.48,7.45-20.47,11.99-19.28,35.53-30.1,58-34.17,9.51-1.72,19.16-2.53,28.82-2.53M321.02,122.08h0c-10.52,0-20.88.91-30.78,2.71-29.37,5.32-53.2,19.6-65.38,39.19-4.68,7.52-7.71,15.83-9,24.69-1,6.84-1.93,17.21-.7,27.8,1.38,11.95,5.19,21.64,11.31,28.8.98,1.14,2.03,2.27,3.14,3.35.42.41.8.74,1.08.99l.18.16c.11.1.22.21.34.31.32.3.71.66,1.19,1.07.82.69,1.6,1.29,2.3,1.81l.06.05.06.05c.27.22.55.43.83.64.83.6,1.73,1.21,2.82,1.91.2.14.38.26.57.37,1.02.64,2.11,1.27,3.25,1.89.09.05.19.11.28.16,3.5,1.88,7.3,3.51,11.3,4.84,6.36,2.12,13.25,3.51,20.47,4.14.08,0,.17.02.25.02,1.09.09,2.26.17,3.66.23.22.02.4.03.58.03,1.05.04,2.16.07,3.58.08h.05c.2,0,.4.01.6.01,1.41,0,2.82-.03,4.21-.09,2.13-.09,4.34-.25,6.95-.51l.31-.03c.38-.04.75-.07,1.13-.11,2.21-.24,4.4-.53,6.49-.86.28-.04.56-.09.84-.14l.44-.07c1.72-.28,3.58-.62,5.68-1.05l.35-.07c.25-.05.51-.1.76-.15,1.93-.41,3.94-.87,6.14-1.42.54-.13,1.07-.27,1.61-.41,1.46-.37,2.78-.72,4.04-1.07,3.32-.91,6.18-3.14,7.85-6.12,1.67-3,2.07-6.46,1.1-9.75-1.17-3.99-2-7.77-2.48-11.23-1.16-8.4-.3-15.27,2.64-21.02,4.27-8.35,15.41-14.3,27.73-14.82.45-.02.89-.03,1.34-.03h.36c11.56,0,23.9,5.21,35.69,15.06,1.87,1.56,3.74,3.26,5.57,5.07,2.44,2.4,5.68,3.73,9.12,3.73s6.82-1.41,9.21-3.86c8.76-9.02,12.83-21.41,11.48-34.88-1.61-16.03-10.57-31.45-23.39-40.22-16.37-11.21-37.69-15.76-56.38-18.73-10.36-1.65-20.73-2.48-30.8-2.48h0Z"/>
      </g>
    </g>
    <path class="cls-2" d="M244.86,190.49c-1.2-2.75-1.07-6.12-.21-8.88,1.06-3.39,3.1-5.98,5.23-8.29,8.37-9.08,18.95-14.24,29.82-17.51,7.1-2.14,14.37-4.28,21.78-4.86,1.65-.13,6.74-.99,7.65,1.93,1.38,4.44-8.64,8.34-10.43,9.38-1.01.59-2.02,1.18-3.02,1.79-7.04,4.28-14.31,8.61-20.01,15.36-6.14,7.28-13.64,15.49-22.72,15.88-2.21.09-4.61-.42-6.45-2.32-.71-.73-1.25-1.57-1.65-2.48Z"/>
  </g>
  <path class="cls-3" d="M120.13,643.71l124.64-120.89-6.23-34.67c-1.19-6.63-.31-13.47,2.54-19.58l17.63-37.87c3.22-6.91,10.34-11.13,17.94-10.65l55.97,3.57c4.11.26,7.07,4.04,6.36,8.09-1.48,8.42-5.84,21.66-19.09,22.62-19.56,1.41-24.69.96-24.69.96,0,0,23.96,37.9-3.37,63.32l13.29,32.06,16.48,26.09-2.28,2.4-45.59,64.56H120.13Z"/>
  <line class="cls-4" x1="316.66" y1="66.82" x2="316.66" y2="91.97"/>
  <line class="cls-4" x1="365.74" y1="75.28" x2="353.04" y2="97.65"/>
  <line class="cls-4" x1="267.57" y1="75.28" x2="280.27" y2="97.65"/>
  <g>
    <path class="cls-6" d="M408.75,484.12c-6.92,0-13.28-3.47-17.02-9.28l-.82-1.27c-2.99-4.64-3.9-10.15-2.74-15.32-5.53-.95-10.43-4.16-13.54-8.98l-.82-1.27c-2.99-4.64-3.89-10.15-2.74-15.32-5.53-.95-10.43-4.16-13.54-8.98l-.82-1.27c-2.99-4.64-3.89-10.15-2.74-15.32-5.53-.95-10.43-4.16-13.54-8.98l-.82-1.27c-6.04-9.38-3.32-21.92,6.06-27.95l30.64-19.72c3.27-2.11,7.05-3.22,10.93-3.22,6.92,0,13.28,3.47,17.02,9.28l.82,1.27c2.99,4.64,3.89,10.15,2.74,15.31,5.53.95,10.43,4.16,13.54,8.98l.82,1.27c2.99,4.64,3.89,10.15,2.74,15.31,5.53.95,10.43,4.16,13.54,8.98l.82,1.28c2.99,4.64,3.89,10.15,2.74,15.31,5.53.95,10.43,4.16,13.54,8.98l.82,1.27c2.92,4.54,3.9,9.95,2.76,15.23-1.14,5.28-4.28,9.8-8.82,12.72l-30.64,19.72c-3.27,2.11-7.05,3.22-10.93,3.22Z"/>
    <path class="cls-5" d="M387.25,351.47c4.84,0,9.58,2.38,12.4,6.76l.82,1.27c3.32,5.16,3,11.61-.29,16.35-.47.67.04,1.56.8,1.56.07,0,.14,0,.22-.02,1.05-.23,2.1-.34,3.16-.34,4.84,0,9.58,2.38,12.39,6.75l.82,1.27c3.32,5.16,3,11.61-.29,16.35-.47.67.04,1.56.8,1.56.07,0,.14,0,.22-.02,1.05-.23,2.1-.34,3.16-.34,4.84,0,9.58,2.38,12.39,6.75l.82,1.27c3.32,5.16,3,11.61-.29,16.35-.47.67.04,1.56.8,1.56.07,0,.14,0,.22-.02,1.04-.23,2.1-.34,3.16-.34,4.84,0,9.58,2.38,12.39,6.75l.82,1.27c4.4,6.84,2.43,15.95-4.41,20.35l-30.64,19.72c-2.47,1.59-5.23,2.34-7.95,2.34-4.84,0-9.58-2.38-12.4-6.76l-.82-1.27c-3.32-5.16-3-11.61.29-16.35.47-.67-.04-1.56-.8-1.56-.07,0-.14,0-.22.02-1.05.23-2.11.34-3.16.34-4.84,0-9.58-2.38-12.39-6.75l-.82-1.27c-3.32-5.16-3-11.61.29-16.35.47-.67-.04-1.56-.8-1.56-.07,0-.14,0-.22.02-1.05.23-2.1.34-3.16.34-4.84,0-9.58-2.38-12.39-6.75l-.82-1.27c-3.32-5.16-3-11.61.29-16.35.47-.67-.04-1.56-.8-1.56-.07,0-.14,0-.22.02-1.05.23-2.1.34-3.16.34-4.84,0-9.58-2.38-12.39-6.75l-.82-1.27c-4.4-6.84-2.42-15.95,4.41-20.35l30.64-19.72c2.47-1.59,5.23-2.34,7.95-2.34M387.25,340.47h0c-4.94,0-9.75,1.42-13.91,4.09l-30.64,19.72c-5.78,3.72-9.76,9.46-11.22,16.18-1.46,6.72-.21,13.6,3.51,19.37l.82,1.27c2.97,4.62,7.24,8.07,12.18,10.01-.07,4.95,1.29,9.92,4.1,14.28l.82,1.27c2.97,4.62,7.24,8.07,12.18,10.01-.07,4.95,1.29,9.92,4.1,14.28l.82,1.27c2.97,4.62,7.24,8.07,12.18,10.01-.07,4.95,1.29,9.92,4.1,14.28l.82,1.27c4.76,7.39,12.85,11.81,21.65,11.81,4.94,0,9.75-1.42,13.91-4.09l30.64-19.72c5.78-3.72,9.76-9.46,11.22-16.18,1.46-6.72.21-13.6-3.51-19.37l-.82-1.27c-2.97-4.62-7.24-8.07-12.18-10.01.07-4.95-1.29-9.92-4.1-14.28l-.82-1.27c-2.97-4.62-7.24-8.07-12.18-10.01.07-4.95-1.29-9.92-4.1-14.28l-.82-1.27c-2.97-4.62-7.24-8.07-12.18-10.01.07-4.95-1.29-9.92-4.1-14.28l-.82-1.27c-4.76-7.39-12.85-11.8-21.65-11.8h0Z"/>
  </g>
</svg>