<?xml version="1.0" encoding="UTF-8"?>
<svg id="Iconen" xmlns="http://www.w3.org/2000/svg" viewBox="0 0 720 720">
  <defs>
    <style>
      .cls-1 {
        stroke-linecap: square;
      }

      .cls-1, .cls-2 {
        fill: #fff;
      }

      .cls-1, .cls-3 {
        stroke-width: 11px;
      }

      .cls-1, .cls-3, .cls-4 {
        stroke: #1d1d1b;
        stroke-miterlimit: 10;
      }

      .cls-5 {
        fill: #1d1d1b;
      }

      .cls-6, .cls-3 {
        fill: #dadada;
      }

      .cls-7 {
        fill: #e30613;
      }

      .cls-4 {
        fill: none;
        stroke-linecap: round;
        stroke-width: 17px;
      }
    </style>
  </defs>
  <path class="cls-1" d="M438.33,267.18c-1.31-30.39-11.43-39.2-9.75-42.81-6.2,3.12-42.47,21.33-42.47,21.33.56,44.13-24.44,121.41-42.64,172.16h0s-.01.04-.02.05c-.39,1.09-.78,2.17-1.17,3.24,0,0,0,0,0,0-1.57,4.34-3.07,8.46-4.5,12.33,0,0,0,.02-.01.03-7.23,19.59-12.44,32.69-12.8,34.1-15.46-5.84-30.18-12.25-47.04-11.53-3.53.15-7.81,1.02-12.21,2.23-19.52,5.35-30.59,19.65-43.58,33.87-19.08-23.05-28.41-47.23-102.02-46.92v196.38c23.43,5.45,47.16,9.69,71.18,11.14,33.53,2.03,65.82-4.18,98.49-11.07,19.1-4.03,37.69-10.42,55.2-19.04,11.86-5.84,22.23-12.89,31.31-20.96,19.1-16.98,32.47-38.45,41.93-62.56,10.03-25.53,15.67-54.01,19.11-83.21,3.49-29.66,2.37-156.7.99-188.76Z"/>
  <g>
    <g>
      <g>
        <path class="cls-7" d="M401.01,398.46c-21.54,0-42.17-1.8-63.08-5.5-4.06-.72-7-4.16-6.99-8.18v-.14s2.88-52.15,2.88-52.15c.09-3.64,2.5-6.87,6.04-8.07,2.81-.95,5.47-2.52,7.9-4.66,16.41-14.45,29.09-31.26,37.7-49.96,1.8-3.92,3.45-7.76,4.89-11.43,1.12-2.85,3.87-4.7,6.99-4.7.68,0,1.37.09,2.03.27,12.56,3.44,23.23,5.24,33.57,5.68h.23c4.82,0,14.62-4.61,22.51-8.32,6.35-2.99,12.34-5.8,16.8-6.89.63-.15,1.29-.23,1.94-.23,3.94,0,7.35,2.88,7.92,6.69l.1.67-.07.68c-.89,9.07-1.65,17.64-2.33,26.19-1.21,15.27-8.22,25.97-15.64,37.3-1.63,2.48-3.31,5.05-4.92,7.66l-.05-.03c-.6,1.08-1.62,2.74-3.36,5.55l-3.4,5.52c-1.66,2.69-2.5,5.55-2.5,8.51l4.09,44.4v.22c.05,4.13-3.08,7.68-7.28,8.27l-.16.02c-15.91,1.76-30.9,2.62-45.81,2.62h0Z"/>
        <path class="cls-5" d="M474.4,249.67c1.22,0,2.3.83,2.48,2-.86,8.76-1.64,17.5-2.33,26.3-1.35,17.12-11.08,28.43-19.75,42.5,0,0-6.81,11.05-6.81,11.05-2.23,3.62-3.37,7.61-3.32,11.66l4.09,44.42c.01,1.38-1.07,2.56-2.54,2.76-15.25,1.69-30.26,2.59-45.21,2.59-20.65,0-41.2-1.71-62.13-5.42-1.42-.25-2.45-1.41-2.45-2.74l2.87-52.12c0-1.37.92-2.59,2.31-3.05,3.13-1.06,6.47-2.83,9.78-5.74,16.99-14.96,30.13-32.39,39.06-51.79,1.76-3.82,3.45-7.74,5.01-11.71.29-.75,1.05-1.21,1.87-1.21.19,0,.38.02.57.08,11.17,3.06,22.77,5.36,34.79,5.87.15,0,.3,0,.46,0,10.15,0,30.91-13.01,40.61-15.37.21-.05.43-.08.64-.08M474.4,238.67h0c-1.09,0-2.18.13-3.24.39-5,1.22-10.95,4.02-17.84,7.26-6.2,2.92-16.58,7.8-20.17,7.8-9.92-.42-20.2-2.16-32.35-5.49-1.13-.31-2.3-.47-3.48-.47-5.39,0-10.15,3.21-12.1,8.18-1.41,3.57-3.01,7.32-4.77,11.15-8.28,18-20.51,34.19-36.34,48.13-1.91,1.68-3.88,2.85-6.03,3.58-5.71,1.93-9.59,7.14-9.78,13.05l-2.86,51.93-.02.29v.29c-.02,6.7,4.83,12.42,11.53,13.61,21.23,3.76,42.18,5.59,64.04,5.59,15.12,0,30.3-.87,46.42-2.66l.16-.02.16-.02c6.92-.97,12.09-6.89,12.02-13.78v-.45s-.05-.44-.05-.44l-4.05-43.89c.05-1.85.61-3.67,1.68-5.41l3.4-5.52,2.34-3.8c.39-.63.74-1.19,1.05-1.74h.02c1.57-2.54,3.23-5.07,4.83-7.52,7.47-11.41,15.2-23.2,16.52-39.88.67-8.51,1.43-17.04,2.32-26.09l.13-1.35-.2-1.35c-.97-6.49-6.71-11.38-13.35-11.38h0Z"/>
      </g>
      <g>
        <path class="cls-7" d="M332.97,327.71c-.25,0-.5,0-.76-.02-20.32-.85-31.46-28.3-35.66-38.64-7.41-18.25-7.35-36.65.16-51.82.4-.81.84-1.63,1.3-2.47l.35-.62c.46-.82.94-1.66,1.46-2.5.53-.86,1.08-1.72,1.65-2.59l.4-.6c1.18-1.76,2.46-3.52,3.79-5.25l.43-.55c1.4-1.79,2.88-3.56,4.41-5.27l.46-.51c.78-.86,1.57-1.72,2.39-2.57.73-.76,1.47-1.5,2.22-2.23l.45-.43c.59-.57,1.19-1.13,1.79-1.68l.66-.6c.58-.52,1.16-1.03,1.75-1.54l.63-.54c.77-.65,1.56-1.3,2.35-1.93.87-.69,1.71-1.33,2.56-1.95l.62-.44c.64-.46,1.28-.91,1.93-1.35.27-.18.54-.36.81-.54.63-.42,1.26-.82,1.9-1.22l.76-.48c.86-.52,1.71-1.02,2.57-1.49l.13-.07c.85-.47,1.75-.94,2.74-1.42.19-.09.79-.37.79-.37.68-.32,1.35-.63,2.03-.92.31-.14.63-.27.95-.4.67-.28,1.34-.54,2.02-.79,0,0,.68-.25.89-.33.98-.35,1.88-.64,2.75-.89l.14-.04c.93-.27,1.9-.52,2.98-.76.22-.05.44-.09.66-.14l.24-.05c.71-.15,1.42-.28,2.13-.39.35-.06.69-.1,1.04-.15.72-.1,1.43-.17,2.15-.23l.21-.02c.25-.02.49-.04.74-.06,1.01-.06,1.92-.1,2.77-.1h.32c.48,0,.95.02,1.43.04,14.04.59,26.58,7.74,31.94,18.22.54,1.06,1.03,2.18,1.54,3.53l.06.15c.07.19.14.38.21.56.4,1.13.76,2.3,1.05,3.46.05.18.17.74.17.74.26,1.12.47,2.23.62,3.31.03.15.05.3.07.44.14,1.03.24,2.14.31,3.49.02.34.04.69.05,1.03.04,1.12.04,2.24.01,3.31,0,.28-.02.56-.04.84l-.02.3c-.04.84-.1,1.68-.18,2.52l-.02.26c-.04.38-.07.77-.12,1.15-.02.18-.1.72-.1.72-.09.69-.18,1.36-.28,2.04-.09.56-.18,1.11-.28,1.66-.12.67-.25,1.33-.39,2-.18.89-.38,1.78-.6,2.66-.1.41-.2.81-.3,1.21-.37,1.44-.76,2.85-1.16,4.19-.82,2.72-1.8,5.55-3.12,8.99-1.12,2.94-2.26,5.73-3.38,8.29l-.32.73c-.7,1.59-1.41,3.16-2.1,4.66-8.77,19.05-21.64,36.13-38.27,50.78-1.55,1.37-3.2,2.51-4.89,3.41-2.88,1.52-5.89,2.3-8.94,2.3h0Z"/>
        <path class="cls-5" d="M359.69,196.24c.09,0,.18,0,.27,0,.42,0,.83.01,1.25.03,11.59.49,22.64,6.17,27.27,15.22.5.97.92,1.97,1.3,2.98.08.2.16.4.23.6.35.97.65,1.96.9,2.96.05.21.1.42.15.64.22.94.4,1.89.54,2.86.02.13.05.25.06.38.14,1.01.22,2.04.27,3.07.02.3.03.61.04.91.03.98.04,1.97.01,2.96-.01.34-.03.69-.05,1.03-.04.76-.09,1.52-.16,2.28-.04.43-.08.86-.13,1.29-.03.22-.06.45-.09.67-.08.62-.16,1.24-.26,1.87-.08.51-.17,1.02-.26,1.53-.11.62-.24,1.24-.36,1.86-.17.83-.36,1.66-.56,2.5-.09.38-.19.76-.28,1.14-.34,1.33-.7,2.65-1.1,3.97,0,.03-.02.06-.02.08-.88,2.91-1.9,5.75-2.96,8.53-1.06,2.77-2.16,5.48-3.28,8.05-.1.23-.21.47-.31.7-.69,1.58-1.39,3.12-2.06,4.59-8.38,18.22-20.93,34.88-36.91,48.95-1.28,1.13-2.56,2-3.83,2.67-2.15,1.13-4.28,1.66-6.37,1.66-.18,0-.35,0-.53-.01-16.57-.69-26.63-24.96-30.79-35.21-6.16-15.17-7.39-32.41-.01-47.31.37-.74.77-1.5,1.19-2.26.1-.19.21-.38.32-.57.43-.77.88-1.54,1.36-2.33.49-.81,1.01-1.61,1.55-2.42.12-.19.25-.38.38-.56,1.1-1.64,2.29-3.29,3.57-4.95.13-.17.27-.35.41-.52,1.31-1.67,2.7-3.34,4.18-4.99.14-.16.29-.32.44-.48.74-.82,1.5-1.63,2.27-2.44.69-.72,1.39-1.42,2.1-2.11.14-.14.29-.27.43-.41.56-.54,1.12-1.07,1.69-1.59.21-.19.42-.38.62-.57.54-.49,1.09-.97,1.65-1.45.2-.17.39-.34.59-.51.73-.62,1.47-1.23,2.22-1.82.82-.65,1.61-1.25,2.4-1.83.19-.14.39-.28.58-.42.6-.43,1.2-.85,1.81-1.27.25-.17.51-.34.76-.51.58-.39,1.17-.76,1.76-1.13.24-.15.48-.3.72-.44.78-.48,1.58-.94,2.37-1.38.04-.02.07-.04.11-.06.84-.46,1.68-.9,2.53-1.31.24-.12.48-.23.72-.34.61-.29,1.23-.58,1.85-.84.29-.13.58-.25.87-.37.61-.25,1.22-.49,1.83-.72.27-.1.54-.2.8-.3.84-.3,1.68-.57,2.53-.82.03,0,.06-.02.09-.03.88-.25,1.75-.47,2.64-.67.27-.06.54-.11.8-.16.63-.13,1.25-.25,1.88-.35.31-.05.61-.09.92-.13.62-.08,1.25-.15,1.87-.2.28-.02.56-.05.83-.07.8-.05,1.6-.08,2.41-.08M359.69,185.24c-.97,0-1.99.03-3.11.11-.3.02-.59.04-.88.07l-.2.02c-.84.07-1.63.16-2.4.26-.39.05-.78.11-1.17.17-.77.12-1.55.27-2.38.44l-.19.04c-.27.05-.54.11-.81.17-1.18.27-2.25.54-3.28.84l-.19.05-.08.03c-.92.27-1.89.59-2.94.96-.26.09-.52.19-.78.29l-.21.08c-.77.29-1.5.57-2.2.86-.35.14-.7.29-1.04.44-.71.31-1.43.64-2.2,1l-.19.09c-.22.1-.44.21-.66.31-1.07.53-2.04,1.03-2.97,1.54-.07.04-.14.08-.22.12-.86.48-1.73.98-2.67,1.55-.21.13-.42.26-.63.39l-.19.12c-.7.44-1.38.87-2.02,1.3-.29.19-.58.39-.87.58-.67.45-1.36.94-2.06,1.45l-.17.12c-.16.12-.32.23-.48.35-.96.71-1.85,1.38-2.72,2.07-.8.63-1.61,1.3-2.5,2.05-.16.14-.32.28-.48.41l-.17.15c-.62.54-1.24,1.08-1.84,1.62-.23.21-.46.42-.69.63-.64.58-1.26,1.17-1.88,1.77l-.13.13c-.12.11-.23.22-.35.34-.83.81-1.59,1.58-2.33,2.34-.78.81-1.61,1.69-2.52,2.7l-.48.53c-1.61,1.8-3.17,3.66-4.64,5.54-.15.19-.3.39-.45.58-1.4,1.82-2.75,3.68-3.99,5.53-.15.22-.29.43-.43.65-.68,1.02-1.23,1.9-1.75,2.74-.5.82-1,1.67-1.56,2.68-.13.23-.25.45-.37.67-.56,1.02-1,1.87-1.4,2.67-8.22,16.6-8.33,36.6-.32,56.33,4.56,11.23,16.67,41.06,40.52,42.06.33.01.66.02.99.02,3.95,0,7.82-.99,11.51-2.93,2.08-1.1,4.08-2.49,5.96-4.15,17.21-15.15,30.54-32.85,39.63-52.61.71-1.53,1.42-3.13,2.14-4.75l.32-.72c1.16-2.65,2.33-5.52,3.48-8.54,1.36-3.56,2.38-6.5,3.22-9.27l.02-.07.02-.07v.02c.42-1.41.83-2.89,1.21-4.4.11-.43.22-.86.32-1.29.22-.91.43-1.86.63-2.83.15-.72.29-1.43.42-2.14.1-.58.2-1.17.3-1.77.12-.74.21-1.47.3-2.2v-.09c.05-.23.08-.46.11-.69.05-.43.09-.85.13-1.27l.02-.25c.09-.95.15-1.87.2-2.76v-.26c.03-.33.05-.66.06-.99.04-1.22.03-2.45-.01-3.68-.01-.36-.03-.73-.05-1.1-.09-1.53-.2-2.78-.36-3.96-.03-.2-.06-.4-.09-.6-.18-1.21-.41-2.42-.69-3.63l-.03-.13c-.05-.24-.11-.48-.17-.71-.34-1.34-.74-2.68-1.21-3.99-.08-.21-.17-.45-.26-.68l-.05-.13c-.58-1.52-1.16-2.85-1.79-4.08-6.24-12.21-20.61-20.54-36.61-21.21-.53-.02-1.07-.04-1.6-.04h-.38Z"/>
      </g>
      <g>
        <path class="cls-7" d="M436.96,261.86c-1.33,0-2.67-.03-3.98-.08-2.02-.08-4.13-.24-6.64-.49,0,0-1.01-.1-1.38-.14-2.13-.23-4.23-.51-6.23-.83-.25-.04-1.25-.21-1.25-.21-1.65-.27-3.44-.6-5.47-1.02l-1.07-.21c-1.88-.4-3.82-.85-5.96-1.38-.52-.13-1.04-.26-1.57-.4-1.32-.34-2.64-.69-3.95-1.04-1.93-.53-3.53-1.77-4.49-3.5-.95-1.7-1.17-3.66-.63-5.52,1.24-4.25,2.13-8.29,2.65-12.02,1.32-9.55.28-17.49-3.19-24.28-5.22-10.21-17.94-17.21-32.39-17.81-.5-.02-1.01-.03-1.52-.04h-.42c-12.87,0-26.43,5.65-39.22,16.35-1.98,1.66-3.97,3.46-5.9,5.37-1.38,1.36-3.3,2.15-5.26,2.15s-3.89-.78-5.27-2.2c-7.6-7.83-11.13-18.66-9.94-30.5,1.43-14.25,9.68-28.47,21.03-36.24,15.56-10.65,37.11-15.13,54.14-17.83,10.08-1.6,20.15-2.41,29.94-2.41s20.22.88,29.8,2.62c27.84,5.05,50.33,18.42,61.69,36.68,4.28,6.88,7.04,14.47,8.22,22.58,1.92,13.18,3.26,37.49-9.34,52.23-.87,1.01-1.81,2.02-2.8,2.99-.28.27-.57.53-.87.79l-.21.18c-.15.13-.3.27-.44.41-.32.3-.64.6-.98.88-.7.59-1.38,1.11-2.05,1.61l-.26.2c-.2.16-.41.33-.62.48-.76.55-1.6,1.12-2.66,1.79-.15.1-.29.2-.43.29-.93.58-1.94,1.17-3,1.74-.07.04-.14.08-.21.12-3.21,1.73-6.72,3.23-10.42,4.46-5.99,1.99-12.48,3.3-19.31,3.89h-.09c-1.2.11-2.38.18-3.56.24-.21.02-.35.02-.48.03-1.14.05-2.28.07-3.43.07,0,0-.42.01-.57.01Z"/>
        <path class="cls-5" d="M398.98,133.08c9.66,0,19.31.81,28.82,2.53,22.46,4.07,46,14.89,58,34.17,3.72,5.99,6.34,12.79,7.45,20.47,2.16,14.84,2.29,35.73-8.08,47.86-.78.91-1.6,1.78-2.46,2.62-.28.28-.59.53-.89.8-.45.4-.86.82-1.32,1.2-.61.51-1.25,1-1.89,1.48-.24.18-.47.38-.71.56-.77.56-1.58,1.09-2.39,1.61-.13.08-.25.17-.38.25-.91.57-1.84,1.1-2.79,1.62-.04.02-.09.05-.13.08-3,1.61-6.2,2.97-9.55,4.08-5.7,1.9-11.82,3.09-18.04,3.62-.04,0-.08,0-.11.01-1.1.09-2.21.16-3.32.21-.15,0-.3.02-.45.03-1.08.04-2.15.06-3.23.07-.18,0-.36.01-.54.01h0c-1.25,0-2.51-.03-3.76-.08-2.17-.09-4.25-.26-6.33-.46-.44-.04-.88-.08-1.31-.13-2-.22-3.99-.48-5.97-.79-.41-.06-.81-.14-1.22-.21-1.76-.29-3.51-.62-5.25-.98-.35-.07-.69-.13-1.04-.21-1.93-.41-3.86-.86-5.77-1.33-.51-.13-1.02-.26-1.52-.39-1.29-.33-2.58-.67-3.86-1.02-1-.27-1.57-1.24-1.3-2.17,1.25-4.28,2.23-8.57,2.82-12.81,1.34-9.65.6-19.05-3.74-27.54-6.11-11.95-20.66-20.12-37.06-20.8-.56-.02-1.13-.04-1.69-.04-.16,0-.31,0-.47,0-14.18,0-28.95,6.09-42.74,17.63-2.13,1.78-4.21,3.68-6.23,5.67-.38.37-.89.56-1.41.56s-.98-.18-1.34-.54c-16.38-16.87-7.38-46.28,10.26-58.35,14.53-9.95,34.76-14.22,51.89-16.94,9.6-1.53,19.34-2.35,29.08-2.35M398.98,122.08c-10.08,0-20.45.83-30.81,2.48-18.69,2.97-40.01,7.52-56.38,18.73-12.82,8.78-21.79,24.19-23.39,40.22-1.35,13.48,2.72,25.86,11.46,34.87,2.41,2.47,5.77,3.88,9.23,3.88s6.68-1.32,9.12-3.73c1.83-1.8,3.7-3.51,5.57-5.07,11.78-9.86,24.12-15.07,35.69-15.07h.37c.44,0,.89.02,1.34.04,12.32.52,23.46,6.47,27.73,14.82,2.94,5.75,3.8,12.62,2.64,21.02-.48,3.46-1.31,7.23-2.48,11.23-.96,3.29-.57,6.75,1.1,9.75,1.67,2.98,4.53,5.21,7.84,6.12,1.26.34,2.58.69,4.04,1.07.54.14,1.07.27,1.61.41,2.21.55,4.22,1.01,6.14,1.42.25.05.51.1.76.15l.35.07c2.1.43,3.96.77,5.68,1.05l.44.07c.28.05.56.1.84.14,2.09.33,4.27.62,6.49.86.38.04.75.08,1.13.11l.3.03c2.62.26,4.82.42,6.95.51,1.4.06,2.82.09,4.22.09.2,0,.4,0,.6,0h.04c1.42-.01,2.52-.03,3.58-.08.18,0,.37-.02.55-.03h-.04c1.42-.07,2.61-.14,3.73-.24.07,0,.16-.01.24-.02,7.21-.63,14.1-2.02,20.46-4.14,4-1.33,7.8-2.96,11.28-4.83.11-.06.2-.11.3-.17,1.15-.62,2.21-1.24,3.24-1.88.2-.12.39-.25.57-.38,1.09-.7,2-1.31,2.83-1.91.28-.2.56-.42.83-.64l.1-.08.02-.02c.69-.52,1.48-1.12,2.3-1.81.48-.41.88-.78,1.19-1.07.11-.1.22-.21.34-.31l.18-.16c.28-.24.66-.58,1.07-.98,1.11-1.08,2.16-2.21,3.14-3.35,6.12-7.16,9.92-16.85,11.31-28.8,1.22-10.59.3-20.96-.7-27.8-1.29-8.86-4.32-17.17-9-24.69-12.18-19.58-36.01-33.87-65.38-39.19-9.91-1.79-20.26-2.71-30.78-2.71h0Z"/>
      </g>
    </g>
    <path class="cls-2" d="M475.14,190.49c1.2-2.75,1.07-6.12.21-8.88-1.06-3.39-3.1-5.98-5.23-8.29-8.37-9.08-18.95-14.24-29.82-17.51-7.1-2.14-14.37-4.28-21.78-4.86-1.65-.13-6.74-.99-7.65,1.93-1.38,4.44,8.64,8.34,10.43,9.38,1.01.59,2.02,1.18,3.02,1.79,7.04,4.28,14.31,8.61,20.01,15.36,6.14,7.28,13.64,15.49,22.72,15.88,2.21.09,4.61-.42,6.45-2.32.71-.73,1.25-1.57,1.65-2.48Z"/>
  </g>
  <path class="cls-3" d="M599.87,643.71l-124.64-120.89,6.23-34.67c1.19-6.63.31-13.47-2.54-19.58l-17.63-37.87c-3.22-6.91-10.34-11.13-17.94-10.65l-55.97,3.57c-4.11.26-7.07,4.04-6.36,8.09,1.48,8.42,5.84,21.66,19.09,22.62,19.56,1.41,24.69.96,24.69.96,0,0-23.96,37.9,3.37,63.32l-13.29,32.06-16.48,26.09,2.28,2.4,45.59,64.56h153.59Z"/>
  <line class="cls-4" x1="403.34" y1="66.82" x2="403.34" y2="91.97"/>
  <line class="cls-4" x1="354.26" y1="75.28" x2="366.96" y2="97.65"/>
  <line class="cls-4" x1="452.43" y1="75.28" x2="439.73" y2="97.65"/>
  <g>
    <path class="cls-6" d="M311.25,484.12c-3.88,0-7.66-1.11-10.93-3.22l-30.64-19.72c-4.54-2.92-7.67-7.44-8.82-12.72s-.17-10.69,2.76-15.23l.82-1.27c3.1-4.82,8.01-8.03,13.54-8.98-1.15-5.16-.24-10.67,2.74-15.31l.82-1.27c3.1-4.82,8.01-8.03,13.54-8.98-1.15-5.16-.24-10.67,2.74-15.32l.82-1.27c3.1-4.82,8.01-8.03,13.54-8.98-1.15-5.16-.24-10.67,2.74-15.31l.82-1.27c3.74-5.81,10.1-9.28,17.02-9.28,3.88,0,7.66,1.11,10.93,3.22l30.64,19.72c9.38,6.04,12.1,18.57,6.06,27.95l-.82,1.27c-3.1,4.82-8,8.03-13.53,8.98,1.15,5.16.24,10.67-2.74,15.32l-.82,1.27c-3.1,4.82-8,8.03-13.53,8.98,1.15,5.16.24,10.67-2.74,15.32l-.82,1.27c-3.1,4.82-8,8.03-13.53,8.98,1.15,5.16.24,10.67-2.74,15.32l-.82,1.27c-3.74,5.81-10.1,9.28-17.02,9.28Z"/>
    <path class="cls-5" d="M332.75,351.47c2.73,0,5.49.76,7.95,2.34l30.64,19.72c6.84,4.4,8.81,13.51,4.41,20.35l-.82,1.27c-2.81,4.37-7.55,6.75-12.39,6.75-1.05,0-2.11-.11-3.16-.34-.07-.02-.15-.02-.22-.02-.76,0-1.27.89-.8,1.56,3.29,4.75,3.61,11.19.29,16.35l-.82,1.27c-2.81,4.37-7.55,6.75-12.39,6.75-1.05,0-2.11-.11-3.16-.34-.07-.02-.15-.02-.22-.02-.76,0-1.27.89-.8,1.56,3.29,4.75,3.61,11.19.29,16.35l-.82,1.27c-2.81,4.37-7.55,6.75-12.39,6.75-1.05,0-2.11-.11-3.16-.34-.07-.02-.15-.02-.22-.02-.76,0-1.27.89-.8,1.56,3.29,4.75,3.61,11.19.29,16.35l-.82,1.27c-2.81,4.37-7.55,6.76-12.4,6.76-2.73,0-5.49-.76-7.95-2.34l-30.64-19.72c-6.84-4.4-8.81-13.51-4.41-20.35l.82-1.27c2.81-4.37,7.55-6.75,12.39-6.75,1.05,0,2.11.11,3.16.34.07.02.15.02.22.02.76,0,1.27-.89.8-1.56-3.29-4.75-3.61-11.19-.29-16.35l.82-1.27c2.81-4.37,7.55-6.75,12.39-6.75,1.05,0,2.11.11,3.16.34.07.02.15.02.22.02.76,0,1.27-.89.8-1.56-3.29-4.75-3.61-11.19-.29-16.35l.82-1.27c2.81-4.37,7.55-6.75,12.39-6.75,1.05,0,2.11.11,3.16.34.07.02.15.02.22.02.76,0,1.27-.89.8-1.56-3.29-4.75-3.61-11.19-.29-16.35l.82-1.27c2.81-4.37,7.55-6.76,12.4-6.76M332.75,340.47c-8.8,0-16.89,4.41-21.65,11.8l-.82,1.27c-2.81,4.37-4.17,9.33-4.1,14.28-4.93,1.94-9.21,5.4-12.18,10.01l-.82,1.27c-2.81,4.36-4.17,9.33-4.1,14.28-4.93,1.94-9.21,5.4-12.18,10.01l-.82,1.27c-2.81,4.36-4.17,9.33-4.1,14.28-4.93,1.94-9.21,5.4-12.18,10.01l-.82,1.27c-3.72,5.78-4.96,12.66-3.51,19.37,1.46,6.72,5.44,12.46,11.22,16.18l30.64,19.72c4.16,2.68,8.97,4.09,13.91,4.09,8.8,0,16.89-4.41,21.65-11.8l.82-1.27c2.81-4.37,4.17-9.33,4.1-14.28,4.93-1.94,9.21-5.4,12.18-10.01l.82-1.27c2.81-4.37,4.17-9.33,4.1-14.28,4.93-1.94,9.21-5.4,12.18-10.01l.82-1.27c2.81-4.37,4.17-9.33,4.1-14.28,4.93-1.94,9.21-5.4,12.18-10.01l.82-1.27c3.72-5.78,4.96-12.66,3.51-19.37-1.46-6.72-5.44-12.46-11.22-16.18l-30.64-19.72c-4.16-2.68-8.97-4.09-13.91-4.09h0Z"/>
  </g>
</svg>