<?xml version="1.0" encoding="UTF-8"?>
<svg id="Iconen" xmlns="http://www.w3.org/2000/svg" viewBox="0 0 720 720">
  <defs>
    <style>
      .cls-1 {
        fill: #e30613;
      }

      .cls-1, .cls-2, .cls-3, .cls-4 {
        stroke: #1d1d1b;
        stroke-miterlimit: 10;
        stroke-width: 11px;
      }

      .cls-2 {
        fill: #fff;
      }

      .cls-3 {
        fill: #1d71b8;
      }

      .cls-4 {
        fill: none;
        stroke-linecap: round;
      }
    </style>
  </defs>
  <path class="cls-2" d="M180.96,221.67c29.04.24,57.87,12.74,70.35,37.86,3.72,7.49,5.34,15.53,6,23.69.43,5.38.45,10.82.37,16.18-.21,13.95-.28,27.9-.28,41.85,0,30.25.07,60.49.07,90.74,0,0-38.19,0-76.5,0h0c-38.31,0-76.5,0-76.5,0,0-30.25.07-60.49.07-90.74,0-13.95-.07-27.9-.28-41.85-.08-5.36-.07-10.8.37-16.18.66-8.16,2.28-16.21,6-23.69,12.48-25.12,41.31-37.62,70.35-37.86h0Z"/>
  <path class="cls-2" d="M360,221.67c29.04.24,57.87,12.74,70.35,37.86,3.72,7.49,5.34,15.53,6,23.69.43,5.38.45,10.82.37,16.18-.21,13.95-.28,27.9-.28,41.85,0,30.25.07,60.49.07,90.74,0,0-38.19,0-76.5,0h0c-38.31,0-76.5,0-76.5,0,0-30.25.07-60.49.07-90.74,0-13.95-.07-27.9-.28-41.85-.08-5.36-.07-10.8.37-16.18.66-8.16,2.28-16.21,6-23.69,12.48-25.12,41.31-37.62,70.35-37.86h0Z"/>
  <path class="cls-2" d="M538.74,221.67c29.04.24,57.87,12.74,70.35,37.86,3.72,7.49,5.34,15.53,6,23.69.43,5.38.45,10.82.37,16.18-.21,13.95-.28,27.9-.28,41.85,0,30.25.07,60.49.07,90.74,0,0-38.19,0-76.5,0h0c-38.31,0-76.5,0-76.5,0,0-30.25.07-60.49.07-90.74,0-13.95-.07-27.9-.28-41.85-.08-5.36-.07-10.8.37-16.18.66-8.16,2.28-16.21,6-23.69,12.48-25.12,41.31-37.62,70.35-37.86h0Z"/>
  <rect class="cls-2" x="78.2" y="326.84" width="563.59" height="225.38" rx="1" ry="1"/>
  <circle class="cls-2" cx="180.96" cy="174.99" r="46.2"/>
  <circle class="cls-2" cx="360" cy="174.99" r="46.2"/>
  <circle class="cls-2" cx="538.74" cy="174.99" r="46.2"/>
  <g>
    <rect class="cls-3" x="135.82" y="379.9" width="90.88" height="119.27"/>
    <g>
      <line class="cls-4" x1="156.5" y1="408.07" x2="206.02" y2="408.07"/>
      <line class="cls-4" x1="156.5" y1="471.14" x2="206.02" y2="471.14"/>
      <line class="cls-4" x1="156.5" y1="439.6" x2="206.02" y2="439.6"/>
    </g>
  </g>
  <g>
    <rect class="cls-1" x="315.32" y="379.9" width="90.88" height="119.27"/>
    <g>
      <line class="cls-4" x1="336" y1="408.07" x2="385.52" y2="408.07"/>
      <line class="cls-4" x1="336" y1="471.14" x2="385.52" y2="471.14"/>
      <line class="cls-4" x1="336" y1="439.6" x2="385.52" y2="439.6"/>
    </g>
  </g>
  <g>
    <rect class="cls-3" x="495.38" y="379.9" width="90.88" height="119.27"/>
    <g>
      <line class="cls-4" x1="516.06" y1="408.07" x2="565.58" y2="408.07"/>
      <line class="cls-4" x1="516.06" y1="471.14" x2="565.58" y2="471.14"/>
      <line class="cls-4" x1="516.06" y1="439.6" x2="565.58" y2="439.6"/>
    </g>
  </g>
</svg>